<svg width="10000" height="10000" viewBox="0 0 10000 10000" fill="none" xmlns="http://www.w3.org/2000/svg">
<path d="M4258.6 6009.46C4667.81 6596.25 4986.31 9435.58 3045.84 8969.8C2961.4 8949.53 2879.49 8916.66 2804.32 8873.19C2328.66 8598.11 521.384 7393.89 520.43 4976.34C519.463 2526.25 2476.27 488.952 4999.93 488.952C7523.59 488.952 9480.39 2526.25 9479.42 4976.34C9478.47 7393.89 7671.19 8598.11 7195.53 8873.19C7120.36 8916.66 7038.45 8949.53 6954.01 8969.8C5013.54 9435.58 5332.04 6596.25 5741.25 6009.46M4258.6 6009.46C3840.62 5410.09 2200.24 5780.75 2200.24 5780.75M4258.6 6009.46C3733.38 5256.32 3211.14 5123.46 2768.06 4770.68M4258.6 6009.46C4328.11 5921.16 4358.91 5832.75 4361.85 5741.32M2200.24 5780.75C1692.02 5818.14 1386.16 5837.53 993.095 6030.98C968.68 6045.66 975.566 6082.19 1003.64 6087.06C1526.27 6177.86 1803.63 6063.51 2200.24 5780.75ZM2200.24 5780.75C1962.52 5609.54 1312.82 5388.1 983.073 5694.86C962.957 5713.57 974.961 5744.61 1001.23 5743.63C1003.15 5743.56 1004.86 5743.16 1006.7 5742.61C1222.43 5678.1 2044.55 5802.88 2200.24 5780.75ZM4242.83 2042.58C4663.52 1841.6 4919.6 1640.26 4911.16 1240.65C4910.6 1214.24 4879.35 1201.33 4859.92 1219.22C4568.23 1487.72 4375.6 1737.26 4242.83 2042.58ZM4242.83 2042.58C4307.33 1951.31 4302.11 1663.75 4267.32 1460.13C4260.1 1435.2 4228.41 1431.92 4216.14 1453.81C4215.33 1455.25 4214.54 1456.7 4213.63 1458.08C4071.87 1670.9 4120.84 1984.25 4242.83 2042.58ZM4242.83 2042.58C4328.04 1822.52 4381.35 1702.73 4425.18 1456.01M4242.83 2042.58C2881.2 4223.96 4383.55 5065.15 4361.85 5741.32M2768.06 4770.68C2603.35 4639.54 2424.48 4470.97 2285.55 4235.87M2768.06 4770.68C2460.72 4761.12 2289.09 4764.77 1988.43 4802.83M2768.06 4770.68C2525.23 4120.66 2512.61 3741.62 2504.31 3194M2285.55 4235.87C1948.97 3904.77 1681.73 3720.1 1163.26 3557.79C1135.54 3549.11 1112.27 3579.43 1128.16 3603.74C1463.56 4116.97 1768.02 4190.27 2285.55 4235.87ZM2499.93 2925.86C2614.07 2523.97 2626.85 2237.66 2354.61 1855.84C2337.9 1832.39 2301.6 1842.79 2299.32 1871.5C2256.19 2414.99 2339.51 2677.43 2499.93 2925.86ZM2499.93 2925.86C2501.84 3020.37 2503.02 3109.21 2504.31 3194M3891.88 4680.95C3752.91 4467.95 3537.11 4351.45 3186.71 4184.48C3162.66 4173.02 3136.51 4194.86 3144.43 4220.29C3234.41 4509.13 3491.34 4577.61 3891.88 4680.95ZM3891.88 4680.95C3711.98 4293.36 3866.92 4060.21 4014.73 3751.9C4023.76 3733.07 4048.39 3728.41 4062.5 3743.81C4289.54 3991.7 4082.57 4492.25 3891.88 4680.95ZM3848.51 2824.88C3910.13 2610.13 3794.2 2469.98 3534.44 2205.93C3516.12 2187.3 3484.67 2198.51 3482.33 2224.54C3451.83 2562.72 3671.68 2683.42 3848.51 2824.88ZM3848.51 2824.88C4071.71 2808.95 4429.71 2769.68 4532.6 2482.69C4541.49 2457.9 4517.28 2434.64 4492.81 2444.37C4237.08 2546.06 3921.29 2637.38 3848.51 2824.88ZM4425.18 1456.01C4428.61 1215.06 4389.92 1030.88 4506.43 910.116C4524.54 891.349 4554.33 905.001 4554.42 931.078C4555.4 1201.32 4517.3 1337.94 4425.18 1456.01ZM1614.97 4445.92C1500.73 4273.34 1307.03 4009.43 1024.89 3889.25C1000.72 3878.96 975.778 3901.25 984.067 3926.18C1064.5 4158.99 1286.27 4364.25 1614.97 4445.92ZM1614.97 4445.92C1410 4633.16 1238.52 4720.77 876.744 4674.87C854.791 4672.08 843.391 4648.4 858.642 4632.37C989.887 4510.44 1412.14 4386.79 1614.97 4445.92ZM1614.97 4445.92C1776.81 4565.6 1854.78 4643.75 1988.43 4802.83M1988.43 4802.83C1604.97 5080.76 1335.3 5223.01 919.489 5338.74C890.594 5346.78 868.666 5313.59 887.263 5290.06C1252.95 4827.34 1538.32 4751.63 1988.43 4802.83ZM1988.43 4802.83C1986.45 4790.25 2003.62 4804.56 1988.43 4802.83ZM3233.36 5080.45C2700.21 4872.37 2372.83 4921.78 1883.66 5210.6C1857.9 5225.81 1866.48 5264.64 1896.22 5267.85C2490.6 5332.09 2825.41 5255.88 3233.36 5080.45ZM3233.36 5080.45C2953.73 4952.86 2867.11 4756.85 2697.22 4467.57C2681.4 4440.63 2710.5 4410.08 2738.34 4424.25C3087.06 4601.88 3206.01 4790.87 3233.36 5080.45ZM3671.46 3722.39C3629.58 3356.43 3461.55 3129.29 3208.01 2799.94C3191.46 2778.45 3157.24 2786.28 3152.64 2813.01C3092.05 3164.61 3335.53 3448.62 3671.46 3722.39ZM3671.46 3722.39C3808.49 3633.64 3945.38 3554.79 4075.8 3492.15M2504.31 3194C2851.75 3074.04 3226.11 2574.49 3264.19 2110.3C3266.27 2085 3238.8 2068.42 3217.45 2082.14C2825.59 2334.05 2639.43 2716.37 2504.31 3194ZM2504.31 3194C2731.12 3221.94 2790.29 3218.79 2783.84 3280.75M3296.46 5820.18C3209.34 5820.18 3138.73 5883.74 3138.73 5962.14C3138.73 6040.54 3209.34 6104.1 3296.46 6104.1C3383.57 6104.1 3454.18 6040.54 3454.18 5962.14C3454.18 5883.74 3383.57 5820.18 3296.46 5820.18ZM3296.46 5820.18C3295.69 5759.79 3285.1 5723.88 3240.3 5667.48M2783.84 3280.75C2692.37 3280.75 2618.22 3337.25 2618.22 3406.93C2618.22 3476.62 2692.37 3533.12 2783.84 3533.12C2875.3 3533.12 2949.45 3476.62 2949.45 3406.93C2949.45 3337.25 2875.3 3280.75 2783.84 3280.75ZM4361.85 5741.32C4388.01 5695.63 4416.09 5651.2 4444.84 5607.25M4700.24 4467.57C4816.97 4368.93 4683.7 3919.99 4521.85 3751.94C4513.61 3743.39 4499.65 3747.83 4496.96 3759.4C4417.86 4098.55 4471.87 4255.5 4700.24 4467.57ZM4700.24 4467.57C4722.86 4532.9 4739.25 4594.55 4750.22 4652.99M4767.58 4858.04C4634.96 4650.77 4546.84 4546.81 4329.4 4477.12C4316.82 4473.09 4305.48 4485.62 4310.64 4497.78C4446.57 4818.07 4550.86 4887.66 4767.58 4858.04ZM4767.58 4858.04C4769.19 4794.05 4763.93 4726.02 4750.22 4652.99M4767.58 4858.04C4762.46 5062.29 4687.38 5225.41 4593.97 5378.54M4750.22 4652.99C4918.06 4682.61 4994.36 4134.77 4907.78 3925.73C4903.41 3915.16 4889.75 3914.02 4883.58 3923.66C4786.64 4075.18 4687.46 4479.85 4750.22 4652.99ZM4593.97 5378.54C4359.5 5272.48 4261.42 5147.17 4188.21 4769.43C4185.35 4754.67 4202.87 4744.9 4213.98 4755.03C4442.55 4963.73 4555.79 5097.84 4593.97 5378.54ZM4593.97 5378.54C4546.72 5455.99 4494.79 5530.88 4444.84 5607.25M4444.84 5607.25C4702.97 5623.6 4757.24 5607.15 4954.13 5290.86M4444.84 5607.25C4622.85 5495.47 4792.28 5286.65 4941.57 5268.91C4953.53 5267.49 4960.49 5280.64 4954.13 5290.86M4479.42 3351.73C4358.81 3372.52 4221.33 3422.25 4075.8 3492.15M4479.42 3351.73C4560.85 3508.95 4635.89 3579.25 4836.34 3643.76C4847.51 3647.36 4858.42 3637.71 4855.98 3626.24C4812.56 3421.84 4691.54 3395.36 4479.42 3351.73ZM4479.42 3351.73C4592.12 3332.3 4673.31 3281.28 4718.66 3194M4750.22 2862.77C4673.5 2714.25 4681.88 2488.24 4738.04 2345.11C4742.72 2333.16 4758.66 2332.69 4764.04 2344.34C4833.29 2494.5 4839.81 2723.16 4750.22 2862.77ZM4750.22 2862.77C4771.48 3005.45 4759.87 3114.69 4718.66 3194M4075.8 3492.15C4178.26 3628.62 4281.75 3654.58 4489.99 3651.94C4502.45 3651.78 4509.65 3637.89 4502.03 3628.04C4412.36 3512.01 4296.98 3496.11 4075.8 3492.15ZM4718.66 3194C4559.67 3139.44 4490.45 3076.79 4480.01 2813.9C4479.65 2804.7 4487.33 2797.08 4496.13 2799.79C4593.42 2829.69 4736.63 3065 4718.66 3194ZM4954.13 5290.86C4857.97 5252.36 5157.65 5252.36 5045.72 5290.86M5741.25 6009.46C6159.23 5410.09 7799.61 5780.75 7799.61 5780.75M5741.25 6009.46C6266.47 5256.32 6788.71 5123.46 7231.79 4770.68M5741.25 6009.46C5671.74 5921.16 5640.94 5832.75 5638 5741.32M7799.61 5780.75C8307.83 5818.14 8613.69 5837.53 9006.76 6030.98C9031.17 6045.66 9024.28 6082.19 8996.22 6087.06C8473.58 6177.86 8196.22 6063.51 7799.61 5780.75ZM7799.61 5780.75C8037.33 5609.54 8687.03 5388.1 9016.78 5694.86C9036.89 5713.57 9024.89 5744.61 8998.62 5743.63C8996.7 5743.56 8994.99 5743.16 8993.15 5742.61C8777.42 5678.1 7955.3 5802.88 7799.61 5780.75ZM5757.02 2042.58C5336.33 1841.6 5080.25 1640.26 5088.69 1240.65C5089.25 1214.24 5120.5 1201.33 5139.94 1219.22C5431.62 1487.72 5624.25 1737.26 5757.02 2042.58ZM5757.02 2042.58C5692.52 1951.31 5697.74 1663.75 5732.53 1460.13C5739.75 1435.2 5771.44 1431.92 5783.71 1453.81C5784.52 1455.25 5785.31 1456.7 5786.22 1458.08C5927.98 1670.9 5879.01 1984.25 5757.02 2042.58ZM5757.02 2042.58C5671.81 1822.52 5618.5 1702.73 5574.67 1456.01M5757.02 2042.58C7118.65 4223.96 5616.3 5065.15 5638 5741.32M7231.79 4770.68C7396.5 4639.54 7575.37 4470.97 7714.3 4235.87M7231.79 4770.68C7539.13 4761.12 7710.76 4764.77 8011.42 4802.83M7231.79 4770.68C7474.62 4120.66 7487.24 3741.62 7495.54 3194M7714.3 4235.87C8050.88 3904.77 8318.12 3720.1 8836.59 3557.79C8864.31 3549.11 8887.58 3579.43 8871.69 3603.74C8536.29 4116.97 8231.83 4190.27 7714.3 4235.87ZM7499.93 2925.86C7385.78 2523.97 7373 2237.66 7645.24 1855.84C7661.95 1832.39 7698.25 1842.79 7700.53 1871.5C7743.66 2414.99 7660.34 2677.43 7499.93 2925.86ZM7499.93 2925.86C7498.01 3020.37 7496.83 3109.21 7495.54 3194M6107.97 4680.95C6246.94 4467.95 6462.75 4351.45 6813.14 4184.48C6837.19 4173.02 6863.34 4194.86 6855.42 4220.29C6765.44 4509.13 6508.51 4577.61 6107.97 4680.95ZM6107.97 4680.95C6287.87 4293.36 6132.93 4060.21 5985.12 3751.9C5976.09 3733.07 5951.46 3728.41 5937.36 3743.81C5710.31 3991.7 5917.28 4492.25 6107.97 4680.95ZM6151.34 2824.88C6089.72 2610.13 6205.65 2469.98 6465.41 2205.93C6483.74 2187.3 6515.18 2198.51 6517.52 2224.54C6548.02 2562.72 6328.17 2683.42 6151.34 2824.88ZM6151.34 2824.88C5928.14 2808.95 5570.14 2769.68 5467.25 2482.69C5458.36 2457.9 5482.57 2434.64 5507.04 2444.37C5762.77 2546.06 6078.56 2637.38 6151.34 2824.88ZM5574.67 1456.01C5571.24 1215.06 5609.93 1030.88 5493.42 910.116C5475.31 891.349 5445.52 905.001 5445.43 931.078C5444.45 1201.32 5482.55 1337.94 5574.67 1456.01ZM8384.88 4445.92C8499.12 4273.34 8692.82 4009.43 8974.96 3889.25C8999.13 3878.96 9024.07 3901.25 9015.78 3926.18C8935.35 4158.99 8713.58 4364.25 8384.88 4445.92ZM8384.88 4445.92C8589.85 4633.16 8761.33 4720.77 9123.11 4674.87C9145.06 4672.08 9156.46 4648.4 9141.21 4632.37C9009.96 4510.44 8587.71 4386.79 8384.88 4445.92ZM8384.88 4445.92C8223.04 4565.6 8145.07 4643.75 8011.42 4802.83M8011.42 4802.83C8394.88 5080.76 8664.55 5223.01 9080.36 5338.74C9109.26 5346.78 9131.19 5313.59 9112.59 5290.06C8746.9 4827.34 8461.53 4751.63 8011.42 4802.83ZM8011.42 4802.83C8013.4 4790.25 7996.23 4804.56 8011.42 4802.83ZM6766.49 5080.45C7299.64 4872.37 7627.02 4921.78 8116.19 5210.6C8141.95 5225.81 8133.38 5264.64 8103.63 5267.85C7509.25 5332.09 7174.44 5255.88 6766.49 5080.45ZM6766.49 5080.45C7046.12 4952.86 7132.74 4756.85 7302.63 4467.57C7318.45 4440.63 7289.35 4410.08 7261.51 4424.25C6912.79 4601.88 6793.84 4790.87 6766.49 5080.45ZM6328.39 3722.39C6370.27 3356.43 6538.3 3129.29 6791.84 2799.94C6808.39 2778.45 6842.61 2786.28 6847.22 2813.01C6907.8 3164.61 6664.32 3448.62 6328.39 3722.39ZM6328.39 3722.39C6191.37 3633.64 6054.47 3554.79 5924.05 3492.15M7495.54 3194C7148.11 3074.04 6773.74 2574.49 6735.66 2110.3C6733.58 2085 6761.05 2068.42 6782.4 2082.14C7174.27 2334.05 7360.42 2716.37 7495.54 3194ZM7495.54 3194C7268.73 3221.94 7209.56 3218.79 7216.01 3280.75M6703.4 5820.18C6790.51 5820.18 6861.12 5883.74 6861.12 5962.14C6861.12 6040.54 6790.51 6104.1 6703.4 6104.1C6616.28 6104.1 6545.67 6040.54 6545.67 5962.14C6545.67 5883.74 6616.28 5820.18 6703.4 5820.18ZM6703.4 5820.18C6704.16 5759.79 6714.75 5723.88 6759.55 5667.48M7216.01 3280.75C7307.48 3280.75 7381.63 3337.25 7381.63 3406.93C7381.63 3476.62 7307.48 3533.12 7216.01 3533.12C7124.55 3533.12 7050.4 3476.62 7050.4 3406.93C7050.4 3337.25 7124.55 3280.75 7216.01 3280.75ZM5638 5741.32C5611.84 5695.63 5583.76 5651.2 5555.01 5607.25M5299.61 4467.57C5182.88 4368.93 5316.15 3919.99 5478 3751.94C5486.24 3743.39 5500.2 3747.83 5502.89 3759.4C5581.99 4098.55 5527.98 4255.5 5299.61 4467.57ZM5299.61 4467.57C5276.99 4532.9 5260.61 4594.55 5249.63 4652.99M5232.27 4858.04C5364.9 4650.77 5453.01 4546.81 5670.45 4477.12C5683.03 4473.09 5694.37 4485.62 5689.21 4497.78C5553.29 4818.07 5448.99 4887.66 5232.27 4858.04ZM5232.27 4858.04C5230.66 4794.05 5235.92 4726.02 5249.63 4652.99M5232.27 4858.04C5237.39 5062.29 5312.47 5225.41 5405.88 5378.54M5249.63 4652.99C5081.79 4682.61 5005.5 4134.77 5092.07 3925.73C5096.45 3915.16 5110.1 3914.02 5116.27 3923.66C5213.21 4075.18 5312.39 4479.85 5249.63 4652.99ZM5405.88 5378.54C5640.35 5272.48 5738.43 5147.17 5811.64 4769.43C5814.5 4754.67 5796.98 4744.9 5785.87 4755.03C5557.3 4963.73 5444.06 5097.84 5405.88 5378.54ZM5405.88 5378.54C5453.13 5455.99 5505.06 5530.88 5555.01 5607.25M5555.01 5607.25C5296.88 5623.6 5242.61 5607.15 5045.72 5290.86M5555.01 5607.25C5377 5495.47 5207.57 5286.65 5058.28 5268.91C5046.32 5267.49 5039.36 5280.64 5045.72 5290.86M5520.43 3351.73C5641.04 3372.52 5778.52 3422.25 5924.05 3492.15M5520.43 3351.73C5439.01 3508.95 5363.97 3579.25 5163.51 3643.76C5152.34 3647.36 5141.43 3637.71 5143.87 3626.24C5187.29 3421.84 5308.31 3395.36 5520.43 3351.73ZM5520.43 3351.73C5407.73 3332.3 5326.54 3281.28 5281.19 3194M5249.63 2862.77C5326.36 2714.25 5317.97 2488.24 5261.82 2345.11C5257.13 2333.16 5241.19 2332.69 5235.81 2344.34C5166.56 2494.5 5160.04 2723.16 5249.63 2862.77ZM5249.63 2862.77C5228.37 3005.45 5239.98 3114.69 5281.19 3194M5924.05 3492.15C5821.59 3628.62 5718.1 3654.58 5509.86 3651.94C5497.4 3651.78 5490.2 3637.89 5497.82 3628.04C5587.49 3512.01 5702.87 3496.11 5924.05 3492.15ZM5281.19 3194C5440.18 3139.44 5509.4 3076.79 5519.84 2813.9C5520.2 2804.7 5512.52 2797.08 5503.72 2799.79C5406.43 2829.69 5263.22 3065 5281.19 3194ZM4360.96 2969.99C4249.37 3323.36 3955.97 3402.99 3724.81 3454.08C3705.61 3458.33 3687.4 3443.88 3691.63 3424.67C3736.01 3223.34 4164.08 2958.59 4334.4 2934.65C4353.92 2931.91 4366.9 2951.19 4360.96 2969.99ZM4091.62 2298.86C4049.57 1832.74 3866.52 1614.99 3357.03 1360.94C3333.64 1349.27 3307.4 1369.88 3313.31 1395.35C3417.51 1844.72 3638.4 2029.06 4075.8 2292.48C4082.55 2296.55 4083.61 2307.79 4091.17 2310.02C4092.02 2310.27 4092.41 2307.61 4091.62 2298.86ZM4831.93 1952.31C4445.25 2018.18 4161.21 2141.98 4058.96 2348.04C4047.59 2370.95 4069.85 2393.73 4094.23 2385.99C4394.07 2290.74 4704.89 2192.21 4860.78 2000.97C4878.64 1979.07 4859.78 1947.57 4831.93 1952.31ZM4086.41 1525.44C4033.49 1224.97 3941.16 1087.36 3644.7 1007.02C3621.23 1000.66 3600.45 1022.87 3608.22 1045.92C3697.68 1310.99 3806.32 1432.83 4042.28 1557.68C4064.82 1569.6 4090.83 1550.54 4086.41 1525.44ZM2992.02 1525.1C3035.23 1886.76 2985.9 2068.82 2807.39 2290.14C2790.54 2311.04 2757.43 2301.47 2753.71 2274.88C2702.79 1910.24 2728.04 1713.11 2941.35 1506.55C2959.39 1489.08 2989.04 1500.16 2992.02 1525.1ZM1878.54 2316.95C2183.86 2467.78 2241.63 2578.1 2152.67 2780.97C2146.06 2796.05 2128.5 2803 2113.28 2796.7C1925.4 2718.97 1846.18 2627.03 1834.27 2345.57C1833.28 2322.27 1857.64 2306.63 1878.54 2316.95ZM1708.76 2718.91C2096.41 2973.1 2428.62 3153.23 2498.24 3408.06C2504.55 3431.15 2481.39 3449.49 2459.1 3440.77C2053.71 3282.28 1725.01 3146.47 1661.18 2749.23C1656.91 2722.66 1686.26 2704.16 1708.76 2718.91ZM1940.33 3546.64C2113.11 3968.7 2349.51 4117.05 2543.97 4075.66C2558.41 4072.59 2567.84 4058.87 2565.71 4044.27C2534.78 3833.02 2308.35 3711.28 1984.15 3506.31C1957.16 3489.24 1925.33 3518.45 1940.33 3546.64ZM1347.28 3038.66C1597.33 3246.28 1726.36 3377.65 1705.25 3571.31C1703 3591.95 1680.46 3602.77 1662.12 3593.06C1378.74 3443.13 1304.17 3309.74 1297.03 3062.59C1296.27 3036.14 1326.93 3021.76 1347.28 3038.66ZM1773.94 4292.24C2140.68 4380.84 2293.62 4410.61 2443.6 4500.35C2471.25 4516.89 2455.85 4557.65 2423.71 4555.53C2143.89 4537.01 1894.46 4560.91 1741.21 4338.72C1725.19 4315.49 1746.51 4285.61 1773.94 4292.24ZM1793.71 6520.8C1876.79 6243.9 2021.35 5948.3 2466.86 5750.84C2492.83 5739.33 2518.12 5765.83 2505.37 5791.22C2360.44 6079.97 2143.22 6365.49 1840.54 6556.67C1815.96 6572.2 1785.35 6548.66 1793.71 6520.8ZM2413.51 6831.38C2767.9 6538.55 2861.6 6246.62 2916.22 5735.13C2918.84 5710.56 2893.79 5693.72 2873.74 5708.18C2631.71 5882.78 2316.11 6487.31 2366.81 6815.26C2370.25 6837.48 2396.18 6845.7 2413.51 6831.38ZM2056.94 5565.86C2228.76 5649.93 2383.77 5703.19 2598.13 5706.71C2619.65 5707.06 2634.16 5685.74 2622.41 5667.69C2537.81 5537.78 2274.56 5445.42 2059.7 5513.13C2034.48 5521.08 2033.18 5554.23 2056.94 5565.86ZM2909.04 5451.99C3110.64 5320.54 3282.67 5289.73 3509.45 5303.48C3536.75 5305.14 3547.81 5338.29 3526.54 5355.5C3349.91 5498.51 3180.55 5538.23 2922.01 5507.51C2893.53 5504.13 2885.01 5467.65 2909.04 5451.99ZM3651.34 5014.18C3758.43 5195.28 4088.14 5434.21 4279.78 5537.14C4302.9 5549.56 4326.6 5529.15 4315.35 5505.44C4224.85 5314.67 3929.94 5067.49 3688.89 4970.62C3661.64 4959.67 3636.4 4988.89 3651.34 5014.18ZM2734.88 3872.48C2690.85 4021.99 2627.75 4141.03 2622.39 4283.81C2621.76 4300.63 2635.47 4314.36 2652.29 4314.03C2879.66 4309.57 2908.26 4171.31 2798.43 3868.49C2787.74 3839.01 2743.74 3842.4 2734.88 3872.48ZM3792.4 4240.12C3462.49 4216.34 3150.66 3961.35 2924.08 3663.11C2908.3 3642.35 2923.83 3613.38 2949.8 3615.79C3279.16 3646.45 3555.63 3844.36 3817.38 4192.69C3832.82 4213.24 3818.03 4241.97 3792.4 4240.12ZM5638.89 2969.99C5750.48 3323.36 6043.88 3402.99 6275.04 3454.08C6294.24 3458.33 6312.45 3443.88 6308.22 3424.67C6263.84 3223.34 5835.77 2958.59 5665.45 2934.65C5645.93 2931.91 5632.95 2951.19 5638.89 2969.99ZM5908.23 2298.86C5950.28 1832.74 6133.33 1614.99 6642.82 1360.94C6666.21 1349.27 6692.45 1369.88 6686.54 1395.35C6582.34 1844.72 6361.45 2029.06 5924.05 2292.48C5917.3 2296.55 5916.24 2307.79 5908.68 2310.02C5907.83 2310.27 5907.44 2307.61 5908.23 2298.86ZM5167.93 1952.31C5554.6 2018.18 5838.65 2141.98 5940.89 2348.04C5952.26 2370.95 5930 2393.73 5905.62 2385.99C5605.78 2290.74 5294.96 2192.21 5139.07 2000.97C5121.21 1979.07 5140.07 1947.57 5167.93 1952.31ZM5913.44 1525.44C5966.36 1224.97 6058.69 1087.36 6355.15 1007.02C6378.62 1000.66 6399.4 1022.87 6391.63 1045.92C6302.18 1310.99 6193.53 1432.83 5957.57 1557.68C5935.03 1569.6 5909.02 1550.54 5913.44 1525.44ZM7007.83 1525.1C6964.62 1886.76 7013.95 2068.82 7192.46 2290.14C7209.31 2311.04 7242.42 2301.47 7246.14 2274.88C7297.06 1910.24 7271.81 1713.11 7058.5 1506.55C7040.46 1489.08 7010.81 1500.16 7007.83 1525.1ZM8121.31 2316.95C7815.99 2467.78 7758.22 2578.1 7847.18 2780.97C7853.79 2796.05 7871.35 2803 7886.57 2796.7C8074.45 2718.97 8153.67 2627.03 8165.58 2345.57C8166.57 2322.27 8142.21 2306.63 8121.31 2316.95ZM8291.09 2718.91C7903.44 2973.1 7571.23 3153.23 7501.61 3408.06C7495.3 3431.15 7518.46 3449.49 7540.75 3440.77C7946.14 3282.28 8274.84 3146.47 8338.67 2749.23C8342.94 2722.66 8313.59 2704.16 8291.09 2718.91ZM8059.52 3546.64C7886.74 3968.7 7650.34 4117.05 7455.88 4075.66C7441.44 4072.59 7432.01 4058.87 7434.14 4044.27C7465.07 3833.02 7691.5 3711.28 8015.7 3506.31C8042.69 3489.24 8074.52 3518.45 8059.52 3546.64ZM8652.57 3038.66C8402.52 3246.28 8273.49 3377.65 8294.6 3571.31C8296.85 3591.95 8319.39 3602.77 8337.73 3593.06C8621.11 3443.13 8695.68 3309.74 8702.82 3062.59C8703.58 3036.14 8672.92 3021.76 8652.57 3038.66ZM8225.91 4292.24C7859.17 4380.84 7706.23 4410.61 7556.25 4500.35C7528.6 4516.89 7544 4557.65 7576.14 4555.53C7855.96 4537.01 8105.39 4560.91 8258.64 4338.72C8274.66 4315.49 8253.34 4285.61 8225.91 4292.24ZM8206.14 6520.8C8123.06 6243.9 7978.5 5948.3 7532.99 5750.84C7507.02 5739.33 7481.73 5765.83 7494.48 5791.22C7639.41 6079.97 7856.63 6365.49 8159.31 6556.67C8183.9 6572.2 8214.5 6548.66 8206.14 6520.8ZM7586.34 6831.38C7231.95 6538.55 7138.25 6246.62 7083.63 5735.13C7081.01 5710.56 7106.06 5693.72 7126.11 5708.18C7368.14 5882.78 7683.74 6487.31 7633.04 6815.26C7629.6 6837.48 7603.67 6845.7 7586.34 6831.38ZM7942.91 5565.86C7771.1 5649.93 7616.08 5703.19 7401.72 5706.71C7380.2 5707.06 7365.69 5685.74 7377.44 5667.69C7462.04 5537.78 7725.3 5445.42 7940.15 5513.13C7965.37 5521.08 7966.67 5554.23 7942.91 5565.86ZM7090.81 5451.99C6889.21 5320.54 6717.19 5289.73 6490.4 5303.48C6463.1 5305.14 6452.04 5338.29 6473.31 5355.5C6649.94 5498.51 6819.3 5538.23 7077.84 5507.51C7106.32 5504.13 7114.84 5467.65 7090.81 5451.99ZM6348.51 5014.18C6241.42 5195.28 5911.71 5434.21 5720.07 5537.14C5696.95 5549.56 5673.25 5529.15 5684.5 5505.44C5775 5314.67 6069.91 5067.49 6310.96 4970.62C6338.21 4959.67 6363.46 4988.89 6348.51 5014.18ZM7264.97 3872.48C7309 4021.99 7372.1 4141.03 7377.46 4283.81C7378.09 4300.63 7364.38 4314.36 7347.56 4314.03C7120.19 4309.57 7091.59 4171.31 7201.42 3868.49C7212.11 3839.01 7256.11 3842.4 7264.97 3872.48ZM6207.45 4240.12C6537.36 4216.34 6849.19 3961.35 7075.77 3663.11C7091.55 3642.35 7076.02 3613.38 7050.05 3615.79C6720.69 3646.45 6444.22 3844.36 6182.47 4192.69C6167.03 4213.24 6181.82 4241.97 6207.45 4240.12Z" stroke="#0270FF" stroke-width="110.41"/>
<path d="M6734.94 8888.02C6759.8 8742.7 6789.11 8661.65 6861.12 8517.36L6856.66 8522.19C6760.06 8626.87 6704.56 8687.01 6640.3 8809.16C6633.98 8723.98 6647.77 8671.36 6687.62 8572.56C6620.47 8647.94 6584.5 8698.66 6529.89 8809.16C6521.11 8742.69 6521.49 8703.07 6553.55 8619.88L6380.05 8872.25C6410.34 8737.48 6439.41 8670.92 6522 8572.56C6402.7 8655.91 6343.91 8706.98 6253.87 8809.16C6281.44 8686.78 6313.27 8622.35 6380.05 8517.36C6277.17 8608.45 6229.93 8666.73 6167.11 8785.5C6171.91 8700.45 6146.24 8655.42 6127.68 8572.56C6126.78 8643.08 6123.77 8682.66 6096.14 8753.95C6092.75 8659.96 6080.57 8608.16 6040.93 8517.36C6060.7 8609.3 6067.5 8658.46 6040.93 8722.41C6001.99 8627.98 5966.86 8586.72 5898.98 8517.36C5938.8 8593.12 5970.32 8633.95 5938.41 8722.41C5875.91 8675.75 5867.47 8639.63 5859.54 8572.56C5839.35 8643.38 5835.64 8683.12 5859.54 8753.95C6329.2 9084.86 7074.06 9045.75 7074.06 8872.25C7017.13 8877.4 6997.98 8864.35 7010.96 8777.61C7010.96 8777.61 6967.67 8827.96 6963.65 8832.82C6950.45 8848.75 6925.96 8801.79 6932.1 8769.72C6915.62 8791.73 6888.11 8808.91 6884.78 8840.7C6865.8 8818.1 6864.3 8800.07 6884.78 8753.95C6853.23 8777.61 6821.82 8804.29 6813.8 8848.59C6806.66 8810.53 6810.36 8781.96 6829.58 8722.41C6782.75 8786.22 6762.71 8822.6 6734.94 8888.02Z" fill="#0270FF"/>
<path d="M3225.49 8888.02C3200.62 8742.7 3171.32 8661.65 3099.3 8517.36L3103.76 8522.19C3200.37 8626.87 3255.87 8687.01 3320.12 8809.16C3326.44 8723.98 3312.65 8671.36 3272.8 8572.56C3339.95 8647.94 3375.93 8698.66 3430.53 8809.16C3439.31 8742.69 3438.93 8703.07 3406.87 8619.88L3580.38 8872.25C3550.09 8737.48 3521.01 8670.92 3438.42 8572.56C3557.72 8655.91 3616.52 8706.98 3706.56 8809.16C3678.99 8686.78 3647.16 8622.35 3580.38 8517.36C3683.26 8608.45 3730.49 8666.73 3793.31 8785.5C3788.51 8700.45 3814.18 8655.42 3832.74 8572.56C3833.64 8643.08 3836.65 8682.66 3864.29 8753.95C3867.68 8659.96 3879.85 8608.16 3919.49 8517.36C3899.72 8609.3 3892.92 8658.46 3919.49 8722.41C3958.44 8627.98 3993.56 8586.72 4061.45 8517.36C4021.63 8593.12 3990.11 8633.95 4022.02 8722.41C4084.51 8675.75 4092.96 8639.63 4100.88 8572.56C4121.08 8643.38 4124.79 8683.12 4100.88 8753.95C3631.22 9084.86 2886.37 9045.75 2886.37 8872.25C2943.3 8877.4 2962.45 8864.35 2949.46 8777.61C2949.46 8777.61 2992.76 8827.96 2996.78 8832.82C3009.98 8848.75 3034.46 8801.79 3028.33 8769.72C3044.8 8791.73 3072.32 8808.91 3075.64 8840.7C3094.63 8818.1 3096.13 8800.07 3075.64 8753.95C3107.19 8777.61 3138.61 8804.29 3146.62 8848.59C3153.76 8810.53 3150.06 8781.96 3130.85 8722.41C3177.67 8786.22 3197.71 8822.6 3225.49 8888.02Z" fill="#0270FF"/>
<path d="M6734.94 8888.02C6759.8 8742.7 6789.11 8661.65 6861.12 8517.36L6856.66 8522.19C6760.06 8626.87 6704.56 8687.01 6640.3 8809.16C6633.98 8723.98 6647.77 8671.36 6687.62 8572.56C6620.47 8647.94 6584.5 8698.66 6529.89 8809.16C6521.11 8742.69 6521.49 8703.07 6553.55 8619.88L6380.05 8872.25C6410.34 8737.48 6439.41 8670.92 6522 8572.56C6402.7 8655.91 6343.91 8706.98 6253.87 8809.16C6281.44 8686.78 6313.27 8622.35 6380.05 8517.36C6277.17 8608.45 6229.93 8666.73 6167.11 8785.5C6171.91 8700.45 6146.24 8655.42 6127.68 8572.56C6126.78 8643.08 6123.77 8682.66 6096.14 8753.95C6092.75 8659.96 6080.57 8608.16 6040.93 8517.36C6060.7 8609.3 6067.5 8658.46 6040.93 8722.41C6001.99 8627.98 5966.86 8586.72 5898.98 8517.36C5938.8 8593.12 5970.32 8633.95 5938.41 8722.41C5875.91 8675.75 5867.47 8639.63 5859.54 8572.56C5839.35 8643.38 5835.64 8683.12 5859.54 8753.95C6329.2 9084.86 7074.06 9045.75 7074.06 8872.25C7017.13 8877.4 6997.98 8864.35 7010.96 8777.61C7010.96 8777.61 6967.67 8827.96 6963.65 8832.82C6950.45 8848.75 6925.96 8801.79 6932.1 8769.72C6915.62 8791.73 6888.11 8808.91 6884.78 8840.7C6865.8 8818.1 6864.3 8800.07 6884.78 8753.95C6853.23 8777.61 6821.82 8804.29 6813.8 8848.59C6806.66 8810.53 6810.36 8781.96 6829.58 8722.41C6782.75 8786.22 6762.71 8822.6 6734.94 8888.02Z" stroke="#0270FF" stroke-width="15.7729"/>
<path d="M3225.49 8888.02C3200.62 8742.7 3171.32 8661.65 3099.3 8517.36L3103.76 8522.19C3200.37 8626.87 3255.87 8687.01 3320.12 8809.16C3326.44 8723.98 3312.65 8671.36 3272.8 8572.56C3339.95 8647.94 3375.93 8698.66 3430.53 8809.16C3439.31 8742.69 3438.93 8703.07 3406.87 8619.88L3580.38 8872.25C3550.09 8737.48 3521.01 8670.92 3438.42 8572.56C3557.72 8655.91 3616.52 8706.98 3706.56 8809.16C3678.99 8686.78 3647.16 8622.35 3580.38 8517.36C3683.26 8608.45 3730.49 8666.73 3793.31 8785.5C3788.51 8700.45 3814.18 8655.42 3832.74 8572.56C3833.64 8643.08 3836.65 8682.66 3864.29 8753.95C3867.68 8659.96 3879.85 8608.16 3919.49 8517.36C3899.72 8609.3 3892.92 8658.46 3919.49 8722.41C3958.44 8627.98 3993.56 8586.72 4061.45 8517.36C4021.63 8593.12 3990.11 8633.95 4022.02 8722.41C4084.51 8675.75 4092.96 8639.63 4100.88 8572.56C4121.08 8643.38 4124.79 8683.12 4100.88 8753.95C3631.22 9084.86 2886.37 9045.75 2886.37 8872.25C2943.3 8877.4 2962.45 8864.35 2949.46 8777.61C2949.46 8777.61 2992.76 8827.96 2996.78 8832.82C3009.98 8848.75 3034.46 8801.79 3028.33 8769.72C3044.8 8791.73 3072.32 8808.91 3075.64 8840.7C3094.63 8818.1 3096.13 8800.07 3075.64 8753.95C3107.19 8777.61 3138.61 8804.29 3146.62 8848.59C3153.76 8810.53 3150.06 8781.96 3130.85 8722.41C3177.67 8786.22 3197.71 8822.6 3225.49 8888.02Z" stroke="#0270FF" stroke-width="15.7729"/>
<circle cx="5000" cy="5000" r="4921.14" stroke="#0270FF" stroke-width="157.729"/>
</svg>
